<?xml version="1.0" encoding="utf-8"?>
<!-- Generator: Adobe Illustrator 25.0.0, SVG Export Plug-In . SVG Version: 6.00 Build 0)  -->
<svg version="1.1" id="Layer_1" xmlns="http://www.w3.org/2000/svg" xmlns:xlink="http://www.w3.org/1999/xlink" x="0px" y="0px"
	 viewBox="0 0 240 240" style="enable-background:new 0 0 240 240;" xml:space="preserve">
<style type="text/css">
	.st0{fill:#192E56;}
</style>
<path class="st0" d="M230.4,0H9.6C4.29,0,0,4.29,0,9.6v220.8c0,5.31,4.29,9.6,9.6,9.6h220.8c5.31,0,9.6-4.29,9.6-9.6V9.6
	C240,4.29,235.71,0,230.4,0z M202.68,70.05h-19.17c-15.03,0-17.94,7.14-17.94,17.64v23.13h35.88l-4.68,36.21h-31.2V240h-37.41
	v-92.94H96.87v-36.24h31.29v-26.7c0-30.99,18.93-47.88,46.59-47.88c13.26,0,24.63,0.99,27.96,1.44v32.37H202.68z"/>
</svg>
