<?xml version="1.0" encoding="utf-8"?>
<!-- Generator: Adobe Illustrator 26.3.1, SVG Export Plug-In . SVG Version: 6.00 Build 0)  -->
<svg version="1.1" id="Layer_1" xmlns="http://www.w3.org/2000/svg" xmlns:xlink="http://www.w3.org/1999/xlink" x="0px" y="0px"
	 viewBox="0 0 512 512" style="enable-background:new 0 0 512 512;" xml:space="preserve">
<style type="text/css">
	.st0{fill:#231F20;}
</style>
<g>
	<path class="st0" d="M256.6,384.6C185.7,384.6,128,326.9,128,256c0-70.9,57.7-128.6,128.6-128.6c70.9,0,128.6,57.7,128.6,128.6
		C385.3,326.9,327.6,384.6,256.6,384.6z M256.6,154.2c-56.1,0-101.8,45.7-101.8,101.8s45.7,101.8,101.8,101.8
		c56.1,0,101.8-45.7,101.8-101.8S312.8,154.2,256.6,154.2z"/>
</g>
<g>
	<path class="st0" d="M374.4,512H137.6C61.7,512,0,450.3,0,374.4V137.6C0,61.7,61.7,0,137.6,0h236.8C450.3,0,512,61.7,512,137.6
		v236.8C512,450.3,450.3,512,374.4,512z M137.6,28.3c-60.2,0-109.2,49-109.2,109.2v236.8c0,60.2,49,109.2,109.2,109.2h236.8
		c60.2,0,109.2-49,109.2-109.2V137.6c0-60.2-49-109.2-109.2-109.2H137.6z"/>
</g>
<circle class="st0" cx="395.4" cy="117.2" r="32.4"/>
</svg>
