<svg id="Layer_1" data-name="Layer 1" xmlns="http://www.w3.org/2000/svg" viewBox="0 0 279.36 279.36"><defs><style>.cls-1,.cls-2{fill:none;stroke:#00b6f0;stroke-width:3px;}.cls-1{stroke-linecap:round;stroke-linejoin:round;}.cls-2{stroke-miterlimit:10;}</style></defs><path class="cls-1" d="M64,244.21c-1.4.63-20.18,3.73-26.09-10.27-7.95-18.83,9.18-27.73,9.18-27.73s17.27-7.59,27.09,8c6.91,11,2.55,31.82,2.55,31.82"/><polyline class="cls-1" points="92.53 187.76 92.53 217.4 92.53 244.85"/><path class="cls-1" d="M133.8,244.85s-4.55-36.36-41.28-27.45"/><polyline class="cls-1" points="135.22 203.43 120.25 218.4 118.63 220.01"/><path class="cls-1" d="M147.8,244.85V220s.72-12.31,19.45-15.64"/><line class="cls-1" x1="178.16" y1="204.37" x2="178.16" y2="244.85"/><line class="cls-1" x1="178.16" y1="187.76" x2="178.16" y2="195.76"/><path class="cls-1" d="M193.8,244.85V215.21s2-10.05,13.63-10.84,13.46,10.84,13.46,10.84v29.64"/><path class="cls-1" d="M220.89,214.48c5.45-9.82,13.27-10.15,13.27-10.15,6.87-.7,11,4.52,12.61,7.7a15.35,15.35,0,0,1,.85,4.62v28.2"/><polyline class="cls-1" points="85.43 152.85 106.89 105.32 139.71 32.61 172.23 104.9 193.8 152.85"/><polyline class="cls-2" points="138.94 105.46 106.89 105.46 172.48 105.46"/><rect class="cls-2" x="1.5" y="1.5" width="276.36" height="276.36"/></svg>