<?xml version="1.0" encoding="utf-8"?>
<!-- Generator: Adobe Illustrator 26.3.1, SVG Export Plug-In . SVG Version: 6.00 Build 0)  -->
<svg version="1.1" id="Layer_1" xmlns="http://www.w3.org/2000/svg" xmlns:xlink="http://www.w3.org/1999/xlink" x="0px" y="0px"
	 viewBox="0 0 512 512" style="enable-background:new 0 0 512 512;" xml:space="preserve">
<style type="text/css">
	.st0{fill:#FFFFFF;}
</style>
<g>
	<path class="st0" d="M0,512c0,0,32.4-138.3,33.1-141.5c-0.8-1.8-2.4-4.4-3.4-6.1c-1.5-2.5-3-5.1-4.3-7.8
		c-5.7-12.1-10.4-25.8-14.7-43.2C-3.4,256,3.2,194.7,29.3,140.7c15.8-32.7,39.9-62.4,69.5-86.1c25.8-20.6,55.4-36,85.7-44.7
		c57-16.3,118.6-12.4,173.4,11c55.8,23.8,100.8,66.3,126.9,119.8c17.3,35.4,25.3,74.4,25.3,122.7c0,28.1-7.1,59.4-20.5,90.5
		c-13.3,30.9-32.9,59.1-56.7,81.6c-30.7,29-66.7,50-104.1,60.7c-44.5,12.7-92.6,13.5-135.2,2.3c-14-3.7-26.9-8.1-38.5-13.2
		c-2.8-1.2-5.4-2.7-7.6-4c-1-0.6-2.3-1.3-3.3-1.8C141.2,480.1,0,512,0,512z M145.4,432.1c0.9,0,1.8,0,2.7,0.1
		c9.5,0.6,17.1,4.9,22.7,8.1c1.2,0.7,2.8,1.6,3.4,1.9c9.2,4.1,19.8,7.7,31.4,10.8c34.6,9.1,73.8,8.4,110.3-2
		c30.2-8.6,59.5-25.8,84.6-49.6c19.2-18.2,35-41,45.8-66c10.9-25.3,16.7-50.2,16.7-71.9c0-40.8-6.5-73.3-20.5-102
		C399.5,73.3,294.2,27.7,197.5,55.3c-24.3,6.9-48.2,19.4-69.2,36.2c-24.2,19.3-43.7,43.5-56.5,69.8c-21.3,44.1-26.7,94.1-15.2,140.8
		c3.5,14.2,7.2,25.1,11.5,34.2c0.4,0.9,1.5,2.7,2.4,4.3c4.4,7.5,9.8,16.8,10,27.6c0.2,10.9-3.5,21.4-6.5,29.9
		c-1,2.8-1.9,5.4-2.5,7.5c-2.5,9-5,18.3-7.4,27.2c-2,7.5-4.1,15.3-6.3,23c7.3-2,14.7-4.3,22-6.6c10.1-3.1,20.5-6.4,30.8-9
		c1.9-0.5,4.6-1.4,7.4-2.3C125.8,435.3,135.4,432.1,145.4,432.1z"/>
</g>
<path class="st0" d="M164.4,139.9c-9.1,2.1-16.2,11.1-21.1,18.5c-16.7,25-12.5,56.6,0.9,82c27.7,52.6,73.7,95.4,129.2,116
	c21.5,8,47.4,16.3,70,7.5c18.1-7.1,43.7-30.8,34.3-53.4c-2.1-4.9-8.8-7.1-13.3-9.3c-12.3-6.1-32-20.2-46-19.7
	c-15.5,0.6-19.5,35-37,30.3c-19.9-5.3-40.4-20.4-55-34.4c-9.4-9-17.5-19.2-24.7-30c-2.5-3.7-6.4-8.3-6.8-13
	c-0.9-10.8,16.7-20.2,19.1-31c1.8-8.4-4.9-18.5-8-26c-4.2-10.3-7.9-28.2-16.8-35.3C183.7,137.7,170.9,138.4,164.4,139.9z"/>
</svg>
